<svg width="140" height="140" viewBox="0 0 140 140" fill="none" xmlns="http://www.w3.org/2000/svg"><path d="M70 104V42" stroke="black" stroke-width="7" stroke-linecap="square"/><path d="M70 100L33 72C24 65 20 54 22 42C35 57 48 63 70 67C92 63 105 57 118 42C120 54 116 65 107 72L70 100Z" stroke="black" stroke-width="7" stroke-linejoin="miter"/><path d="M48 67C48 58 55 53 63 58C57 61 56 68 63 72C57 75 48 74 48 67Z" fill="black"/><path d="M92 67C92 58 85 53 77 58C83 61 84 68 77 72C83 75 92 74 92 67Z" fill="black"/><path d="M42 38C50 54 59 61 70 67C81 61 90 54 98 38" stroke="black" stroke-width="7" stroke-linecap="square"/></svg>
